<svg width="84" height="80" viewBox="0 0 84 80" fill="none" xmlns="http://www.w3.org/2000/svg">
<path d="M42.0131 7.91083C41.8825 7.96309 41.7491 8.02141 41.6187 8.08298C36.6053 10.9963 35.6733 17.3407 37.0168 22.0992C37.9999 26.5088 42.0538 31.0962 47.3758 30.1148C48.1446 29.9632 48.8694 29.6168 49.5053 29.169C54.7698 25.0122 54.9303 17.4512 51.9859 12.378C50.3895 8.98253 46.074 6.28712 42.0131 7.91083ZM19.4555 16.8808C16.1625 18.2392 14.7715 22.3454 15.3694 25.4695C16.4873 31.6846 22.1083 37.772 29.3482 37.0782C30.008 36.9639 30.645 36.7321 31.2299 36.4051C35.3862 34.0192 35.4993 28.729 33.8947 25.1119C31.8895 20.2983 26.9839 15.7316 20.981 16.4792C20.4329 16.5502 19.9254 16.6869 19.4555 16.8808ZM62.8965 18.9796C57.2743 21.5163 55.3705 28.3261 56.7088 33.4806C57.3205 37.3345 61.2117 41.3038 65.727 39.8867C71.8419 37.4443 73.7023 29.7712 71.8703 24.4947C70.9333 20.8992 67.1225 17.5669 62.8965 18.9796ZM13.0606 39.5788C10.6089 40.5037 8.72481 42.7828 8.80804 45.3826C9.03691 52.337 16.305 58.4492 23.841 57.0186C26.9575 56.3472 28.7378 53.2693 28.5028 50.4832C27.9841 44.5302 22.4197 39.5357 16.1172 39.177C15.0689 39.0622 14.0199 39.2162 13.0606 39.5788ZM43.0488 40.6228C38.2605 42.4834 34.2573 46.6064 32.4398 51.1442C30.5862 56.331 29.5843 61.9206 30.4007 67.2462C30.4564 71.2853 34.9801 74.2122 39.0871 72.6542C44.0646 70.8753 47.0988 66.1173 51.9107 63.9935C55.8441 61.8027 60.3345 62.3585 64.5771 62.2211C68.2435 62.2471 72.4565 60.0664 72.8653 56.2783C72.9037 52.5651 69.6999 49.8564 67.0415 47.5989C62.0754 44.1837 56.7902 40.6199 50.4617 39.7342C47.9134 39.3473 45.3881 39.7144 43.0488 40.6228Z" fill="#E87E00"/>
</svg>
